<svg width="193" height="100" viewBox="0 0 193 100" fill="none" xmlns="http://www.w3.org/2000/svg">
<path d="M44.689 54.4852C47.4602 57.2607 47.4602 61.7492 44.689 64.503L39.3632 69.8372L34.0374 64.503C31.2662 61.7275 31.2662 57.239 34.0374 54.4852C36.9601 51.5362 41.7447 51.5362 44.689 54.4852Z" fill="#112560"/>
<path d="M33.9395 54.4961C31.1683 57.2716 26.6868 57.2716 23.9373 54.4961L18.5898 49.1619L23.9157 43.8277C26.6868 41.0522 31.1683 41.0522 33.9179 43.8277C36.8839 46.755 36.8839 51.5471 33.9395 54.4961Z" fill="#95B1B7"/>
<path d="M34.0374 43.6862C31.2662 40.9107 31.2662 36.4222 34.0374 33.6684L39.3632 28.3125L44.689 33.6467C47.4602 36.4222 47.4602 40.9107 44.689 43.6645C41.7663 46.6352 36.9817 46.6352 34.0374 43.6862Z" fill="#082CAF"/>
<path d="M44.786 43.8277C47.5572 41.0522 52.0387 41.0522 54.7882 43.8277L60.114 49.1619L54.7882 54.4961C52.017 57.2716 47.5356 57.2716 44.786 54.4961C41.82 51.5471 41.82 46.7767 44.786 43.8277Z" fill="#59697F"/>
<path d="M80.1891 46.1148C75.2817 46.1148 71.2959 42.3117 71.2959 37.3861C71.2959 32.4604 75.2357 28.7031 80.1431 28.7031C83.1843 28.7031 85.8799 30.1006 87.5618 32.6437C88.1147 33.4684 88.5525 34.4077 88.6907 35.3929H84.175C83.5068 33.6746 81.9862 32.4604 80.097 32.4604C77.3783 32.4833 75.6043 34.7743 75.6043 37.3632C75.6043 39.952 77.3783 42.3576 80.1431 42.3576C82.0323 42.3576 83.4377 41.1891 84.198 39.5167H88.7138C87.7231 43.4802 84.2671 46.1148 80.1891 46.1148Z" fill="black"/>
<path d="M119.402 38.9212V45.7942H115.624V39.1044C115.624 37.7298 115.44 36.3094 113.689 36.3094C112.007 36.3094 111.592 37.4778 111.592 38.9212V45.7942H107.814V38.9441C107.814 37.6611 107.514 36.3094 105.924 36.3094C104.173 36.3094 103.782 37.6153 103.782 39.1044V45.7942H100.003V37.8215L91.5707 49.9868H87.124L89.6353 46.3899V33.2165H93.4138V40.8456H93.529L98.7359 33.2165H103.528V34.5453H103.574C104.311 33.2624 105.625 32.7812 107.053 32.7812C108.689 32.7812 109.933 33.606 110.693 35.0264C111.615 33.606 112.997 32.7812 114.702 32.7812C115.946 32.7812 117.144 33.1478 118.02 34.0413C119.471 35.5076 119.402 36.9967 119.402 38.9212Z" fill="black"/>
<path d="M128.341 46.2289C127.051 46.2289 125.369 45.6791 124.724 44.4649H124.678V45.7936H121.061V29.0234H124.839V34.2011C125.83 33.1702 127.097 32.7807 128.502 32.7807C129.424 32.7807 130.322 33.0098 131.175 33.3993C133.617 34.5219 134.723 36.8129 134.723 39.4246C134.723 43.2048 132.281 46.2289 128.341 46.2289ZM127.834 36.3089C126.037 36.3089 124.701 37.7064 124.701 39.4705C124.701 41.2574 125.922 42.7008 127.765 42.7008C129.585 42.7008 130.921 41.2804 130.921 39.4934C130.944 37.7751 129.608 36.3089 127.834 36.3089Z" fill="black"/>
<path d="M145.344 45.7942V44.4425H145.298C144.607 45.7255 142.971 46.2295 141.612 46.2295C137.718 46.2295 135.253 43.2283 135.253 39.4939C135.253 35.8283 137.81 32.7812 141.612 32.7812C142.994 32.7812 144.561 33.3082 145.298 34.5453H145.344V33.2165H149.123V45.7942H145.344ZM142.142 36.3094C140.299 36.3094 139.031 37.7527 139.031 39.5397C139.031 41.2809 140.391 42.7013 142.165 42.7013C144.008 42.7013 145.321 41.3038 145.321 39.4939C145.344 37.6611 143.985 36.3094 142.142 36.3094Z" fill="black"/>
<path d="M150.874 45.7936V29.0234H154.653V45.7936H150.874Z" fill="black"/>
<path d="M71.4043 68.0836V51.2676H75.7127V68.0836H71.4043Z" fill="black"/>
<path d="M85.6654 68.0833V61.2102C85.6654 59.8127 85.3889 58.5985 83.684 58.5985C81.933 58.5985 81.5183 59.744 81.5183 61.2331V68.0833H77.7168V55.4827H81.2649V56.8344H81.311C82.1173 55.5285 83.2232 55.0703 84.7669 55.0703C85.8497 55.0703 87.186 55.4827 88.0155 56.17C89.2366 57.178 89.4669 58.7588 89.4669 60.248V68.1291H85.6654V68.0833Z" fill="black"/>
<path d="M95.6423 68.5186C92.9927 68.5186 90.781 67.121 90.4814 64.3489H94.2599C94.3751 65.1279 94.9511 65.5173 95.6884 65.5173C96.2644 65.5173 97.0247 65.1966 97.0247 64.5322C97.0247 63.6158 95.9879 63.3409 95.3197 63.0889C94.7668 62.9056 94.2138 62.7223 93.6839 62.5161C92.1864 61.9663 90.6658 61.004 90.6658 59.217C90.6658 56.5824 93.131 55.0703 95.5732 55.0703C98.1075 55.0703 100.181 56.3762 100.435 59.0567H96.7021C96.6791 58.3465 96.1722 58.0944 95.5041 58.0944C94.9972 58.0944 94.4212 58.3694 94.4212 58.9421C94.4212 60.9124 100.803 59.8127 100.803 64.2573C100.803 67.0523 98.2227 68.5186 95.6423 68.5186Z" fill="black"/>
<path d="M109.95 68.0844V66.7327H109.904C109.235 68.1073 108.037 68.4739 106.609 68.4739C105.227 68.4739 103.798 67.9928 102.877 66.8931C101.84 65.6101 101.725 64.5792 101.725 62.9984V55.4609H105.526V62.4256C105.526 63.8461 105.849 64.9457 107.554 64.9457C109.12 64.9457 109.719 63.8231 109.719 62.3798V55.4609H113.521V68.0615H109.95V68.0844Z" fill="black"/>
<path d="M119.119 61.141V68.0598H115.317V55.4593H118.889V56.811H118.935C119.603 55.5051 120.64 55.0469 122.114 55.0469V58.85C120.455 58.8729 119.119 59.1936 119.119 61.141Z" fill="black"/>
<path d="M132.206 68.0837V66.7091H132.16C131.468 68.0149 129.833 68.496 128.45 68.496C124.534 68.496 122.068 65.4948 122.068 61.7375C122.068 58.049 124.626 55.002 128.45 55.002C129.833 55.002 131.399 55.5289 132.16 56.766H132.206V55.4143H136.007V68.0149H132.206V68.0837ZM129.003 58.553C127.16 58.553 125.87 59.9964 125.87 61.8063C125.87 63.5474 127.229 64.9908 129.026 64.9908C130.869 64.9908 132.206 63.5933 132.206 61.7605C132.206 59.9276 130.846 58.553 129.003 58.553Z" fill="black"/>
<path d="M145.776 68.0833V61.2102C145.776 59.8127 145.499 58.5985 143.794 58.5985C142.043 58.5985 141.629 59.744 141.629 61.2331V68.0833H137.827V55.4827H141.375V56.8344H141.421C142.228 55.5285 143.334 55.0703 144.877 55.0703C145.96 55.0703 147.296 55.4827 148.126 56.17C149.347 57.178 149.577 58.7588 149.577 60.248V68.1291H145.776V68.0833Z" fill="black"/>
<path d="M157.411 68.4965C153.609 68.4965 150.614 65.5182 150.614 61.7381C150.614 58.0037 153.54 55.0254 157.319 55.0254C160.567 55.0254 163.378 57.1102 164.046 60.3176H160.199C159.646 59.1263 158.678 58.5535 157.365 58.5535C155.545 58.5535 154.439 60.0427 154.439 61.761C154.439 63.525 155.614 64.9684 157.457 64.9684C158.724 64.9684 159.623 64.3727 160.199 63.2959H164.069C163.332 66.3659 160.613 68.4965 157.411 68.4965Z" fill="black"/>
<path d="M177.686 62.9289H168.17C168.401 64.418 169.645 65.3115 171.143 65.3115C172.179 65.3115 172.824 64.8991 173.447 64.1202H177.34C176.234 66.6403 173.999 68.4731 171.143 68.4731C167.433 68.4731 164.415 65.4719 164.415 61.7834C164.415 58.1177 167.341 55.002 171.073 55.002C174.967 55.002 177.778 58.0948 177.778 61.875C177.778 62.2645 177.755 62.5852 177.686 62.9289ZM171.096 58.2094C169.737 58.2094 168.516 59.0112 168.217 60.3629H173.976C173.677 59.0112 172.479 58.2094 171.096 58.2094Z" fill="black"/>
</svg>
