<svg width="193" height="100" viewBox="0 0 193 100" fill="none" xmlns="http://www.w3.org/2000/svg">
<path d="M87.7528 74.4897V66.1637H80.8451V74.4897H75.4629V53.7031H80.8451V61.5193H87.7528V53.7031H93.1351V74.4897H87.7528Z" fill="black"/>
<path d="M111.326 68.0896H99.4386C99.7264 69.9303 101.281 71.0348 103.151 71.0348C104.447 71.0348 105.253 70.5251 106.03 69.5622H110.894C109.512 72.6773 106.72 74.9429 103.151 74.9429C98.5175 74.9429 94.7471 71.233 94.7471 66.6736C94.7471 62.1425 98.4024 58.291 103.065 58.291C107.929 58.291 111.441 62.1142 111.441 66.7869C111.441 67.2966 111.412 67.6931 111.326 68.0896ZM103.123 62.2841C101.396 62.2841 99.8991 63.2753 99.5249 64.9461H106.72C106.346 63.2753 104.821 62.2841 103.123 62.2841Z" fill="black"/>
<path d="M124.681 74.4888V72.7897H124.623C123.76 74.4039 121.716 74.9986 119.989 74.9986C115.096 74.9986 112.017 71.2887 112.017 66.6443C112.017 62.0849 115.211 58.3184 119.989 58.3184C121.716 58.3184 123.673 58.9697 124.623 60.499H124.681V58.8848H129.43V74.4605H124.681V74.4888ZM120.68 62.7079C118.377 62.7079 116.766 64.492 116.766 66.7293C116.766 68.8816 118.464 70.6657 120.709 70.6657C123.011 70.6657 124.681 68.9382 124.681 66.6726C124.681 64.3787 123.011 62.7079 120.68 62.7079Z" fill="black"/>
<path d="M131.703 74.4897V53.7031H136.452V74.4897H131.703Z" fill="black"/>
<path d="M144.511 62.4255V74.4613H139.762V62.4255H137.431V58.8856H139.762V53.7031H144.511V58.8856H146.785V62.4255H144.511Z" fill="black"/>
<path d="M157.722 74.4897V66.0221C157.722 64.323 157.233 62.7654 155.189 62.7654C153.145 62.7654 152.541 64.0964 152.541 65.8522V74.4897H147.792V53.7031H152.541V60.3299H152.599C153.433 58.8573 155.074 58.3758 156.686 58.3758C158.24 58.3758 159.967 58.9139 161.003 60.075C162.528 61.7742 162.5 63.6433 162.5 65.7672V74.4613H157.722V74.4897Z" fill="black"/>
<path d="M84.2618 46.9671C78.1293 46.9671 73.1484 42.169 73.1484 35.9546C73.1484 29.7403 78.0717 25 84.2042 25C88.0047 25 91.3732 26.7631 93.475 29.9715C94.1659 31.012 94.713 32.1971 94.8857 33.44H89.2427C88.4077 31.2722 86.5075 29.7403 84.1466 29.7403C80.7205 29.7403 78.5036 32.6596 78.5036 35.9257C78.5036 39.1919 80.7205 42.2268 84.1754 42.2268C86.5363 42.2268 88.2926 40.7527 89.2427 38.6427H94.8857C93.6765 43.6431 89.3578 46.9671 84.2618 46.9671Z" fill="black"/>
<path d="M133.264 37.8908V46.562H128.542V38.1221C128.542 36.3878 128.312 34.5958 126.124 34.5958C124.022 34.5958 123.504 36.0699 123.504 37.8908V46.562H118.782V37.9197C118.782 36.3011 118.408 34.5958 116.421 34.5958C114.233 34.5958 113.744 36.2433 113.744 38.1221V46.562H109.022V36.5034L98.4844 51.8515H92.9277L96.066 47.3136V30.6937H100.788V40.3188H100.932L107.438 30.6937H113.427V32.3701H113.485C114.406 30.7515 116.047 30.1445 117.832 30.1445C119.876 30.1445 121.431 31.1851 122.381 32.9771C123.533 31.1851 125.26 30.1445 127.391 30.1445C128.945 30.1445 130.443 30.607 131.537 31.7343C133.35 33.5841 133.264 35.4629 133.264 37.8908Z" fill="black"/>
<path d="M144.436 47.1113C142.824 47.1113 140.722 46.4176 139.916 44.8856H139.858V46.5621H135.338V25.4043H140.031V31.9366C141.269 30.6359 142.852 30.1446 144.609 30.1446C145.76 30.1446 146.883 30.4336 147.948 30.925C151 32.3413 152.382 35.2317 152.382 38.5267C152.382 43.2959 149.359 47.1113 144.436 47.1113ZM143.802 34.5958C141.557 34.5958 139.887 36.3589 139.887 38.5846C139.887 40.8391 141.413 42.66 143.716 42.66C145.991 42.66 147.66 40.868 147.66 38.6135C147.66 36.4457 146.019 34.5958 143.802 34.5958Z" fill="black"/>
<path d="M165.654 46.5621V44.8567H165.597C164.733 46.4753 162.689 47.1112 160.99 47.1112C156.125 47.1112 153.044 43.3248 153.044 38.6134C153.044 33.9888 156.24 30.1445 160.99 30.1445C162.718 30.1445 164.676 30.8093 165.597 32.3701H165.654V30.6937H170.376V46.5621H165.654ZM161.681 34.5958C159.378 34.5958 157.794 36.4167 157.794 38.6712C157.794 40.8679 159.493 42.66 161.71 42.66C164.013 42.66 165.654 40.8969 165.654 38.6134C165.654 36.3011 163.985 34.5958 161.681 34.5958Z" fill="black"/>
<path d="M172.594 46.5621V25.4043H177.315V46.5621H172.594Z" fill="black"/>
<path d="M33.2124 57.0855H25.8064C21.9173 57.0855 18.7314 53.8997 18.7314 50.0105C18.7314 46.1214 21.9173 42.9355 25.8064 42.9355H33.2124V57.0855Z" fill="#95B1B7"/>
<path d="M47.3418 42.9355H54.7478C58.637 42.9355 61.8228 46.1214 61.8228 50.0105C61.8228 53.8997 58.637 57.0855 54.7478 57.0855H47.3418V42.9355Z" fill="#59697F"/>
<path d="M47.3629 57.0645V64.4704C47.3629 68.3596 44.1771 71.5454 40.2879 71.5454C36.3987 71.5454 33.2129 68.3596 33.2129 64.4704V57.0645H47.3629Z" fill="#112560"/>
<path d="M33.2129 42.936V35.5301C33.2129 31.6409 36.3987 28.4551 40.2879 28.4551C44.1771 28.4551 47.3629 31.6409 47.3629 35.5301V42.936H33.2129Z" fill="#082CAF"/>
</svg>
